<svg width="46" height="46" viewBox="0 0 46 46" fill="none" xmlns="http://www.w3.org/2000/svg">
<rect width="46" height="46" rx="10" fill="#F7F7F7"/>
<g filter="url(#filter0_d)">
<path d="M15 13.7C14.282 13.7 13.7 14.282 13.7 15C13.7 15.718 14.282 16.3 15 16.3V13.7ZM31 16.3C31.718 16.3 32.3 15.718 32.3 15C32.3 14.282 31.718 13.7 31 13.7V16.3ZM15 16.3H31V13.7H15V16.3Z" fill="#212740"/>
<path d="M15 29.7C14.282 29.7 13.7 30.282 13.7 31C13.7 31.718 14.282 32.3 15 32.3V29.7ZM31 32.3C31.718 32.3 32.3 31.718 32.3 31C32.3 30.282 31.718 29.7 31 29.7V32.3ZM15 32.3H31V29.7H15V32.3Z" fill="#212740"/>
<path d="M15 21.7C14.282 21.7 13.7 22.282 13.7 23C13.7 23.718 14.282 24.3 15 24.3V21.7ZM25 24.3C25.718 24.3 26.3 23.718 26.3 23C26.3 22.282 25.718 21.7 25 21.7V24.3ZM15 24.3H25V21.7H15V24.3Z" fill="#212740"/>
</g>
<defs>
<filter id="filter0_d" x="6.7002" y="13.7" width="26.6" height="26.6" filterUnits="userSpaceOnUse" color-interpolation-filters="sRGB">
<feFlood flood-opacity="0" result="BackgroundImageFix"/>
<feColorMatrix in="SourceAlpha" type="matrix" values="0 0 0 0 0 0 0 0 0 0 0 0 0 0 0 0 0 0 127 0"/>
<feOffset dx="-3" dy="4"/>
<feGaussianBlur stdDeviation="2"/>
<feColorMatrix type="matrix" values="0 0 0 0 0.129412 0 0 0 0 0.152941 0 0 0 0 0.25098 0 0 0 0.2 0"/>
<feBlend mode="normal" in2="BackgroundImageFix" result="effect1_dropShadow"/>
<feBlend mode="normal" in="SourceGraphic" in2="effect1_dropShadow" result="shape"/>
</filter>
</defs>
</svg>
